<?xml version="1.0" encoding="UTF-8"?>
<svg width="71px" height="71px" viewBox="0 0 71 71" version="1.1" xmlns="http://www.w3.org/2000/svg" xmlns:xlink="http://www.w3.org/1999/xlink">
    <title>icon/og/sampleapp-white</title>
    <defs>
        <linearGradient x1="8.36287902%" y1="90.1979401%" x2="77.3543084%" y2="15.6376765%" id="linearGradient-1">
            <stop stop-color="#8895FF" offset="0%"></stop>
            <stop stop-color="#EF8DF8" offset="100%"></stop>
        </linearGradient>
    </defs>
    <g id="Symbols" stroke="none" stroke-width="1" fill="none" fill-rule="evenodd">
        <g id="module/developer-first-tools" transform="translate(-19.000000, -1114.000000)">
            <g id="cards/3" transform="translate(0.000000, 382.000000)">
                <g id="cards/3/app" transform="translate(0.000000, 702.000000)">
                    <g id="Group" transform="translate(14.000000, 25.000000)">
                        <path d="M75.484,40.5004 C75.484,59.8214 59.821,75.4834 40.5,75.4834 C21.179,75.4834 5.516,59.8214 5.516,40.5004 C5.516,21.1794 21.179,5.5164 40.5,5.5164 C59.821,5.5164 75.484,21.1794 75.484,40.5004" id="Combined-Shape" fill="#FFFFFF"></path>
                        <g id="Group-3" transform="translate(19.000000, 18.000000)" fill="url(#linearGradient-1)">
                            <path d="M15.4482927,0.000107317073 C13.7870244,0.0215707317 12.1600976,0.815717073 11.1395122,2.27952195 L11.1395122,2.27952195 C9.70682927,4.33679024 9.94292683,7.05298537 11.5355122,8.85161951 L11.5355122,8.85161951 L4.83678049,8.85161951 C2.16995122,8.85161951 0,11.0215707 0,13.6884 L0,13.6884 L0,17.7342537 C0,18.4103512 0.548390244,18.9587415 1.22341463,18.9587415 L1.22341463,18.9587415 L2.52731707,18.9587415 L2.52731707,39.3039122 C2.52731707,41.7797171 4.54165854,43.7929854 7.01639024,43.7929854 L7.01639024,43.7929854 L35.0390244,43.7929854 C37.5137561,43.7929854 39.5280976,41.7797171 39.5280976,39.3039122 L39.5280976,39.3039122 L39.5280976,18.9587415 L40.9017561,18.9587415 C41.5628293,18.9587415 42.101561,18.4350341 42.1251707,17.7804 L42.1251707,17.7804 L42.1251707,13.5961073 C42.076878,10.9722049 39.9251707,8.85161951 37.2905366,8.85161951 L37.2905366,8.85161951 L30.9030244,8.85161951 C32.4977561,7.05298537 32.7327805,4.33679024 31.2990244,2.27952195 L31.2990244,2.27952195 C29.6216585,-0.129746341 26.2937561,-0.723209756 23.8844878,0.954156098 L23.8844878,0.954156098 C22.8789268,1.65493659 21.9517073,3.31513171 21.2198049,4.97961951 L21.2198049,4.97961951 C20.4879024,3.31513171 19.5606829,1.65600976 18.555122,0.954156098 L18.555122,0.954156098 C17.6493659,0.323131707 16.6148293,0.0129853659 15.5856585,0.000107317073 L15.5856585,0.000107317073 L15.4482927,0.000107317073 Z M13.8642927,7.68830244 C12.5614634,6.77932683 12.2416585,4.98069268 13.1484878,3.68000976 L13.1484878,3.68000976 C13.7076098,2.87835122 14.6026341,2.44800976 15.5137561,2.44800976 L15.5137561,2.44800976 C16.0814634,2.44800976 16.6556098,2.61435122 17.1546341,2.96420488 L17.1546341,2.96420488 L17.1557073,2.96420488 C17.9251707,3.49971707 19.0756098,5.96157073 19.9287805,8.40303415 L19.9287805,8.40303415 L19.9287805,8.40410732 C19.705561,8.4084 19.479122,8.41054634 19.2505366,8.41054634 L19.2505366,8.41054634 C17.034439,8.41054634 14.6165854,8.21308293 13.8642927,7.68830244 L13.8642927,7.68830244 Z M22.5119024,8.40518049 C23.2985366,6.16547317 24.4532683,3.54157073 25.2839024,2.96420488 L25.2839024,2.96420488 C26.5878049,2.05522927 28.3832195,2.37932683 29.291122,3.68000976 L29.291122,3.68000976 C30.1979512,4.98069268 29.8781463,6.7804 28.5753171,7.68830244 L28.5753171,7.68830244 C27.8756098,8.17659512 25.5758049,8.41161951 23.2159024,8.41161951 L23.2159024,8.41161951 C22.9819512,8.41161951 22.7469268,8.40947317 22.5119024,8.40518049 L22.5119024,8.40518049 Z M2.44790244,13.6884 C2.44790244,12.3705463 3.52,11.299522 4.83678049,11.299522 L4.83678049,11.299522 L37.2905366,11.299522 C38.6062439,11.299522 39.6772683,12.3705463 39.6772683,13.6884 L39.6772683,13.6884 L39.6772683,16.510839 L38.3036098,16.510839 L3.75180488,16.510839 L2.44790244,16.510839 L2.44790244,13.6884 Z M4.97629268,28.9274244 L37.079122,28.9274244 L37.079122,18.9587415 L4.97629268,18.9587415 L4.97629268,28.9274244 Z M4.97629268,39.3039122 L4.97629268,31.3764 L37.079122,31.3764 L37.079122,39.3039122 C37.079122,40.4296683 36.1647805,41.3450829 35.0390244,41.3450829 L35.0390244,41.3450829 L7.01639024,41.3450829 C5.89063415,41.3450829 4.97629268,40.4296683 4.97629268,39.3039122 L4.97629268,39.3039122 Z" id="Fill-1"></path>
                        </g>
                    </g>
                </g>
            </g>
        </g>
    </g>
</svg>