<?xml version="1.0" encoding="UTF-8"?>
<svg width="71px" height="71px" viewBox="0 0 71 71" version="1.1" xmlns="http://www.w3.org/2000/svg" xmlns:xlink="http://www.w3.org/1999/xlink">
    <title>icon/og/sandbox-white</title>
    <defs>
        <linearGradient x1="5.00084902%" y1="89.0266604%" x2="79.5630588%" y2="16.6389192%" id="linearGradient-1">
            <stop stop-color="#8895FF" offset="0%"></stop>
            <stop stop-color="#EF8DF8" offset="100%"></stop>
        </linearGradient>
    </defs>
    <g id="Symbols" stroke="none" stroke-width="1" fill="none" fill-rule="evenodd">
        <g id="cards/3" transform="translate(-36.000000, -30.000000)">
            <g id="cards/3/sandbox" transform="translate(15.000000, 0.000000)">
                <g id="Group" transform="translate(16.000000, 25.000000)">
                    <path d="M75.484,40.5 C75.484,59.821 59.821,75.483 40.5,75.483 C21.179,75.483 5.516,59.821 5.516,40.5 C5.516,21.179 21.179,5.516 40.5,5.516 C59.821,5.516 75.484,21.179 75.484,40.5" id="Combined-Shape-Copy" fill="#FFFFFF"></path>
                    <path d="M49.269,21.7668 L46.617,24.4188 C46.617,24.4188 46.616,24.4188 46.616,24.4198 L46.616,24.4198 C46.615,24.4198 46.615,24.4208 46.615,24.4208 L46.615,24.4208 L40.579,30.4578 L31.91,21.7878 C30.886,20.7638 29.221,20.7668 28.196,21.7878 L28.196,21.7878 L21.768,28.2168 C20.744,29.2408 20.744,30.9048 21.768,31.9288 L21.768,31.9288 L30.437,40.5988 L23.653,47.3828 C23.284,47.7518 23.036,48.2178 22.935,48.7258 L22.935,48.7258 L21.397,56.4648 C21.335,56.7748 21.329,57.0918 21.382,57.4098 L21.382,57.4098 C21.596,58.6918 22.71,59.6038 23.969,59.6038 L23.969,59.6038 C24.112,59.6038 24.257,59.5918 24.402,59.5688 L24.402,59.5688 L32.389,58.2408 C32.932,58.1498 33.424,57.8958 33.813,57.5058 L33.813,57.5058 L40.579,50.7408 L48.505,58.6658 C49.017,59.1778 49.688,59.4338 50.361,59.4338 L50.361,59.4338 C51.033,59.4338 51.706,59.1778 52.217,58.6658 L52.217,58.6658 L58.648,52.2368 C59.143,51.7408 59.416,51.0808 59.416,50.3808 L59.416,50.3808 C59.416,49.6798 59.142,49.0208 58.647,48.5258 L58.647,48.5258 L50.721,40.5988 L56.756,34.5638 C56.756,34.5618 56.757,34.5618 56.758,34.5618 L56.758,34.5618 L56.759,34.5608 L59.411,31.9078 C59.908,31.4108 60.163,30.7628 60.178,30.1108 L60.178,30.1108 L60.178,29.9938 C60.163,29.3408 59.908,28.6928 59.411,28.1968 L59.411,28.1968 L52.982,21.7668 C52.47,21.2558 51.798,21.0008 51.125,21.0008 L51.125,21.0008 C50.453,21.0008 49.781,21.2558 49.269,21.7668 L49.269,21.7668 Z M49.003,25.2158 L50.86,23.3568 C51.007,23.2098 51.245,23.2128 51.391,23.3568 L51.391,23.3568 L57.82,29.7868 C57.966,29.9338 57.966,30.1708 57.82,30.3178 L57.82,30.3178 L55.961,32.1758 L49.003,25.2158 Z M50.096,57.0758 L23.358,30.3378 C23.212,30.1918 23.212,29.9538 23.358,29.8078 L23.358,29.8078 L29.788,23.3778 C29.861,23.3048 29.957,23.2688 30.053,23.2688 L30.053,23.2688 C30.149,23.2688 30.246,23.3048 30.319,23.3778 L30.319,23.3778 L31.669,24.7288 L30.389,26.0078 C29.95,26.4478 29.95,27.1598 30.389,27.5988 L30.389,27.5988 C30.608,27.8188 30.896,27.9278 31.184,27.9278 L31.184,27.9278 C31.471,27.9278 31.76,27.8188 31.98,27.5988 L31.98,27.5988 L33.26,26.3188 L34.886,27.9458 C34.865,27.9638 34.839,27.9698 34.82,27.9898 L34.82,27.9898 L32.371,30.4398 C31.931,30.8808 31.931,31.5918 32.371,32.0318 L32.371,32.0318 C32.59,32.2508 32.878,32.3608 33.166,32.3608 L33.166,32.3608 C33.454,32.3608 33.742,32.2508 33.962,32.0318 L33.962,32.0318 L36.411,29.5798 C36.43,29.5608 36.437,29.5348 36.455,29.5148 L36.455,29.5148 L38.082,31.1418 L36.802,32.4208 C36.362,32.8608 36.362,33.5718 36.802,34.0118 L36.802,34.0118 C37.022,34.2318 37.309,34.3408 37.598,34.3408 L37.598,34.3408 C37.885,34.3408 38.173,34.2318 38.393,34.0118 L38.393,34.0118 L39.672,32.7328 L41.299,34.3588 C41.279,34.3758 41.253,34.3828 41.233,34.4018 L41.233,34.4018 L38.784,36.8538 C38.345,37.2928 38.345,38.0048 38.784,38.4448 L38.784,38.4448 C39.004,38.6648 39.292,38.7728 39.58,38.7728 L39.58,38.7728 C39.867,38.7728 40.155,38.6648 40.374,38.4448 L40.374,38.4448 L42.824,35.9928 C42.844,35.9738 42.85,35.9478 42.868,35.9268 L42.868,35.9268 L44.495,37.5548 L43.215,38.8348 C42.775,39.2738 42.775,39.9858 43.215,40.4248 L43.215,40.4248 C43.435,40.6448 43.722,40.7538 44.01,40.7538 L44.01,40.7538 C44.298,40.7538 44.586,40.6448 44.806,40.4248 L44.806,40.4248 L46.086,39.1458 L47.712,40.7708 C47.691,40.7898 47.666,40.7958 47.646,40.8158 L47.646,40.8158 L45.197,43.2668 C44.757,43.7058 44.757,44.4178 45.197,44.8568 L45.197,44.8568 C45.417,45.0768 45.704,45.1868 45.992,45.1868 L45.992,45.1868 C46.28,45.1868 46.568,45.0768 46.788,44.8568 L46.788,44.8568 L49.237,42.4068 C49.256,42.3868 49.263,42.3608 49.281,42.3398 L49.281,42.3398 L50.909,43.9678 L49.628,45.2478 C49.189,45.6878 49.189,46.3998 49.628,46.8388 L49.628,46.8388 C49.848,47.0588 50.136,47.1698 50.424,47.1698 L50.424,47.1698 C50.711,47.1698 50.999,47.0588 51.219,46.8388 L51.219,46.8388 L52.499,45.5588 L54.125,47.1848 C54.105,47.2018 54.079,47.2088 54.06,47.2288 L54.06,47.2288 L51.61,49.6798 C51.171,50.1198 51.171,50.8318 51.61,51.2708 L51.61,51.2708 C51.829,51.4908 52.118,51.5998 52.406,51.5998 L52.406,51.5998 C52.693,51.5998 52.982,51.4908 53.201,51.2708 L53.201,51.2708 L55.65,48.8188 C55.67,48.7998 55.676,48.7728 55.694,48.7538 L55.694,48.7538 L57.057,50.1158 C57.151,50.2118 57.166,50.3218 57.166,50.3808 L57.166,50.3808 C57.166,50.4378 57.151,50.5508 57.057,50.6468 L57.057,50.6468 L50.626,57.0758 C50.553,57.1488 50.457,57.1848 50.361,57.1848 L50.361,57.1848 C50.265,57.1848 50.169,57.1488 50.096,57.0758 L50.096,57.0758 Z M42.169,32.0478 L47.411,26.8058 L54.371,33.7668 L49.13,39.0078 L42.169,32.0478 Z M33.104,54.3068 L26.871,48.0718 C26.738,47.9398 26.577,47.8608 26.41,47.8078 L26.41,47.8078 L32.028,42.1898 L38.988,49.1498 L33.369,54.7698 C33.316,54.6018 33.237,54.4408 33.104,54.3068 L33.104,54.3068 Z M23.753,57.2838 C23.705,57.2498 23.624,57.1738 23.604,56.9058 L23.604,56.9058 L25.098,49.3888 C25.149,49.4838 25.199,49.5828 25.28,49.6628 L25.28,49.6628 L31.513,55.8978 C31.586,55.9708 31.675,56.0138 31.761,56.0618 L31.761,56.0618 L24.032,57.3478 C24.01,57.3518 23.988,57.3528 23.967,57.3528 L23.967,57.3528 C23.868,57.3528 23.792,57.3118 23.753,57.2838 L23.753,57.2838 Z" id="Fill-1" fill="url(#linearGradient-1)"></path>
                </g>
            </g>
        </g>
    </g>
</svg>