<?xml version="1.0" encoding="UTF-8"?>
<svg width="71px" height="71px" viewBox="0 0 71 71" version="1.1" xmlns="http://www.w3.org/2000/svg" xmlns:xlink="http://www.w3.org/1999/xlink">
    <title>icon/og/docs-white</title>
    <defs>
        <linearGradient x1="22.3145157%" y1="90.1979401%" x2="68.1885121%" y2="15.6376765%" id="linearGradient-1">
            <stop stop-color="#8895FF" offset="0%"/>
            <stop stop-color="#EF8DF8" offset="100%"/>
        </linearGradient>
    </defs>
    <g id="Symbols" stroke="none" stroke-width="1" fill="none" fill-rule="evenodd">
        <g id="module/developer-first-tools" transform="translate(-24.000000, -763.000000)">
            <g id="cards/3" transform="translate(0.000000, 382.000000)">
                <g id="cards/3/apis" transform="translate(0.000000, 351.000000)">
                    <g id="Group" transform="translate(19.000000, 25.000000)">
                        <path d="M75.484,40.5004 C75.484,59.8214 59.821,75.4834 40.5,75.4834 C21.179,75.4834 5.516,59.8214 5.516,40.5004 C5.516,21.1794 21.179,5.5164 40.5,5.5164 C59.821,5.5164 75.484,21.1794 75.484,40.5004" id="Combined-Shape" fill="#FFFFFF"/>
                        <path d="M31.807,18.842 C29.693,18.842 27.972,20.561 27.972,22.677 L27.972,22.677 L27.972,22.847 L27.346,22.847 C25.232,22.847 23.512,24.567 23.512,26.683 L23.512,26.683 L23.512,58.324 C23.512,60.439 25.232,62.158 27.346,62.158 L27.346,62.158 L49.193,62.158 C51.308,62.158 53.028,60.439 53.028,58.324 L53.028,58.324 L53.028,58.153 L53.654,58.153 C55.769,58.153 57.488,56.433 57.488,54.318 L57.488,54.318 L57.488,22.677 C57.488,20.561 55.769,18.842 53.654,18.842 L53.654,18.842 L31.807,18.842 Z M30.222,22.677 C30.222,21.802 30.934,21.092 31.807,21.092 L31.807,21.092 L53.654,21.092 C54.527,21.092 55.238,21.802 55.238,22.677 L55.238,22.677 L55.238,54.318 C55.238,55.192 54.527,55.903 53.654,55.903 L53.654,55.903 L53.028,55.903 L53.028,26.683 C53.028,24.567 51.308,22.847 49.193,22.847 L49.193,22.847 L32.654,22.847 L30.222,22.847 L30.222,22.677 Z M25.762,58.324 L25.762,26.683 C25.762,25.808 26.473,25.097 27.346,25.097 L27.346,25.097 L49.193,25.097 C50.067,25.097 50.778,25.808 50.778,26.683 L50.778,26.683 L50.778,58.324 C50.778,59.198 50.067,59.908 49.193,59.908 L49.193,59.908 L27.346,59.908 C26.473,59.908 25.762,59.198 25.762,58.324 L25.762,58.324 Z M30.457,32.409 C29.835,32.409 29.332,32.913 29.332,33.534 L29.332,33.534 C29.332,34.156 29.835,34.659 30.457,34.659 L30.457,34.659 L46.084,34.659 C46.705,34.659 47.209,34.156 47.209,33.534 L47.209,33.534 C47.209,32.913 46.705,32.409 46.084,32.409 L46.084,32.409 L30.457,32.409 Z M30.457,39.072 C29.835,39.072 29.332,39.576 29.332,40.197 L29.332,40.197 C29.332,40.818 29.835,41.322 30.457,41.322 L30.457,41.322 L40.665,41.322 C41.286,41.322 41.79,40.818 41.79,40.197 L41.79,40.197 C41.79,39.576 41.286,39.072 40.665,39.072 L40.665,39.072 L30.457,39.072 Z" id="Fill-6" fill="url(#linearGradient-1)"/>
                    </g>
                </g>
            </g>
        </g>
    </g>
</svg>